<?xml version="1.0" encoding="utf-8"?>
<!-- Generator: Adobe Illustrator 19.0.0, SVG Export Plug-In . SVG Version: 6.00 Build 0)  -->
<svg version="1.1" id="Layer_1" xmlns="http://www.w3.org/2000/svg" xmlns:xlink="http://www.w3.org/1999/xlink" x="0px" y="0px"
	 viewBox="0 0 475 320" style="enable-background:new 0 0 475 320;" xml:space="preserve">
<style type="text/css">
	.st0{fill:#FFFFFF;}
</style>
<path id="XMLID_10_" d="M361.6,228.6c-25.6,54-80.6,91.4-144.2,91.4S98.6,282.6,73.1,228.6h28c23.4,39.9,66.8,66.7,116.3,66.7
	s92.8-26.8,116.3-66.7H361.6z"/>
<g id="XMLID_14_">
	<path d="M362.3,93.9h-27.8c-23.2-40.7-67-68.2-117.2-68.2s-93.9,27.5-117.2,68.2H72.3c25.3-54.8,80.8-93,145-93
		S337,39.1,362.3,93.9z"/>
</g>
<g id="XMLID_2_">
	<g id="XMLID_20_">
		<g id="XMLID_11_">
			<g>
				<path d="M466.7,148.2c-0.3-0.2-0.5-0.3-0.8-0.5c-23.6-14.2-47.3-28.3-71-42.3c-2.7-1.5-6.1-2.4-9.1-2.4
					c-53.6-0.4-107.3-0.6-160.9-0.9c-50.8-0.2-156.8-0.4-207.5-0.7c-3.5,0-5.2,1.1-6.3,4.2c-7.1,18.5-10.5,37.1-10.2,55.7
					c0.2,17.5,3.7,35.1,10.4,52.7c1.5,4,3.7,5.1,7.8,5.1c103.8,0.4,262.8,0.9,366.5,1.2c3.7,0,7.8-1.2,11-3
					c18.9-10.8,37.5-22,56.2-33.1c4-2.4,8-4.7,12-7.1c1.1-0.7,2.2-1.3,3.3-1.9c3.9-3,6.5-7.8,6.5-13.1
					C474.5,156.3,471.4,151.1,466.7,148.2z M113.3,149.1c1.6,1.3,3.5,1.9,5.9,1.9h5.6c3.5,0,6.8,0.7,9.9,2c3.1,1.3,5.7,3.1,8.1,5.4
					c0.8,0.8,1.6,1.7,2.2,2.6c1.3,1.7,2.4,3.5,3.3,5.5c1.3,3,2,6.3,2,9.9c0,3.4-0.7,6.7-2,9.8c-1.3,3.1-3.2,5.8-5.5,8.1
					c-2.3,2.3-5,4.1-8.1,5.4c-3,1.3-6.4,2-9.9,2h-5.6c-3.6,0-6.8-0.6-9.9-2c-3-1.3-5.7-3.1-8-5.4c-2.3-2.3-4.1-5-5.4-8.1
					c-1.3-3.1-2-6.4-2-9.8h17c0,2.3,0.8,4.2,2.4,5.9c1.6,1.6,3.5,2.4,5.9,2.4h5.6c2.4,0,4.3-0.8,6-2.4s2.4-3.6,2.4-5.9
					c0-2.4-0.8-4.4-2.4-6c-1.6-1.6-3.6-2.4-6-2.4h-5.6c-3.6,0-6.8-0.6-9.9-1.8c-3-1.2-5.7-2.9-8-5c0,0-0.1-0.1-0.1-0.1
					c-2.2-2.1-4-4.6-5.3-7.5c-1.3-2.9-2-6.2-2-9.7c0-3.5,0.7-6.8,2-9.9c1.3-3.1,3.1-5.8,5.4-8.1c2.3-2.3,5-4.1,8-5.4
					c3.1-1.3,6.4-2,9.9-2h5.6c3.5,0,6.8,0.7,9.9,2c3.1,1.3,5.7,3.1,8.1,5.4c2.3,2.3,4.1,5,5.5,8.1c1.3,3.1,2,6.4,2,9.9h-17
					c0-2.3-0.8-4.3-2.4-5.9c-1.6-1.6-3.6-2.4-6-2.4h-5.6c-2.4,0-4.4,0.8-5.9,2.4c-1.6,1.6-2.4,3.6-2.4,5.9
					C110.9,146,111.7,147.8,113.3,149.1z M232.1,135.4h-27.9v15.5h23v16h-23v17.4h27.9v16h-46.5v-81h46.5V135.4z M330.8,158.3
					c0,0.9,0,1.8-0.1,2.6c-0.2,2.4-0.9,4.6-1.8,6.9c-1.3,3-3.1,5.7-5.5,7.9c-2.4,2.2-5.2,4-8.5,5.2c-3.3,1.3-7,1.8-11.1,1.7h-13.2
					v17.7h-18.6v-81h31.9c3.8-0.2,7.4,0.3,10.6,1.5c3.2,1.2,6,2.8,8.4,4.9c2.4,2.1,4.2,4.6,5.6,7.5c1.3,2.9,2.2,5.9,2.4,9.1V158.3z
					 M438.4,172.4c-0.1,1.9-1.2,4.6-2.7,5.5c-15.8,9.8-31.6,19.4-47.6,28.8c-1.5,0.9-4.2,0.6-6.1,0.1c-1.7-0.4-3.3-1.7-4.8-2.8
					c-7.7-5.5-7.6-12.7,0.5-17.5c3.3-1.9,7-3.3,11.6-5.4c-11.3-3.3-19.3-7.3-19.6-20.1v-0.4c0-12.6,8.1-16.2,19.2-19.6
					c-4.1-1.9-7.6-3.2-10.9-5c-8.8-5-9.2-12.1-1-18c6.4-4.6,7.2-4.7,13.9-0.6c14.4,8.7,28.7,17.6,43.2,26.2c3.6,2.1,4.6,4.4,4.3,8.5
					c-0.2,2.9-0.2,5.8-0.1,8.7C438.3,164.7,438.5,168.6,438.4,172.4z"/>
			</g>
		</g>
		<g id="XMLID_15_">
			<g id="XMLID_1_">
				<path d="M312.2,143.7v14.6c0,0.9-0.2,1.8-0.5,2.6c-0.4,1.1-1.1,2.2-2.1,3.2c-1.7,1.7-3.7,2.5-5.9,2.5h-13.2v-31.2h13.2
					c2.2,0,4.2,0.8,5.9,2.5C311.3,139.5,312.2,141.5,312.2,143.7z"/>
			</g>
			<g id="XMLID_3_">
				<path class="st0" d="M303.7,167.1H290v-32.2h13.7c2.4,0,4.5,0.9,6.3,2.6c1.8,1.8,2.7,3.9,2.7,6.2v14.6c0,0.9-0.2,1.9-0.5,2.8
					c-0.4,1.2-1.2,2.3-2.2,3.3C308.2,166.2,306.1,167.1,303.7,167.1z M291,166.1h12.7c2.1,0,4-0.8,5.5-2.3c0.9-0.9,1.6-1.9,2-3
					c0.3-0.8,0.4-1.6,0.4-2.5v-14.6c0-2.1-0.8-3.9-2.4-5.5c-1.6-1.5-3.4-2.3-5.5-2.3H291V166.1z"/>
			</g>
		</g>
	</g>
</g>
</svg>
